<?xml version="1.0" encoding="utf-8"?>
<!-- Generator: Adobe Illustrator 23.0.1, SVG Export Plug-In . SVG Version: 6.00 Build 0)  -->
<svg version="1.1" id="Layer_1" xmlns="http://www.w3.org/2000/svg" xmlns:xlink="http://www.w3.org/1999/xlink" x="0px" y="0px"
	 viewBox="0 0 48 48" style="enable-background:new 0 0 48 48;" xml:space="preserve">
<style type="text/css">
	.st0{fill:#FFFFFF;}
</style>
<title>ic_edu_swipe_white_48dp_</title>
<path class="st0" d="M37.41,22.14c-0.59-0.14-1.18-0.11-1.73,0.04c-0.08-1.45-1.06-2.77-2.57-3.22c-0.74-0.18-1.48-0.11-2.14,0.15
	c-0.07-0.24-0.16-0.48-0.28-0.7c-0.45-0.84-1.19-1.45-2.16-1.74c-0.52-0.12-1.03-0.12-1.52-0.02l1.09-4.07
	c0.55-1.88-0.52-3.86-2.46-4.43c-1.89-0.44-3.81,0.73-4.28,2.6l-3.71,13.83l-1.24-2.05c-1.62-2.53-3.54-2.22-4.59-1.79
	c-1.74,0.84-2.5,2.89-1.75,4.6l4.89,13.32l-0.92,3.56l1.92,0.5l1-3.86c0.05-0.19,0.04-0.4-0.03-0.59L11.91,24.6
	c-0.35-0.79-0.01-1.71,0.72-2.06c0.6-0.24,1.27-0.29,2.11,1.03l2.21,3.66l-0.33,1.24c-0.14,0.53,0.17,1.07,0.7,1.21
	c0.09,0.02,0.17,0.03,0.26,0.03c0.44,0,0.84-0.29,0.96-0.73l4.75-17.73c0.21-0.84,1.07-1.37,1.86-1.18
	c0.83,0.25,1.31,1.13,1.06,1.98l-1.9,7.08c-0.01,0.05-0.04,0.09-0.05,0.14l-1.31,4.93l-0.02,0.07c0,0,0,0,0,0l0,0
	c-0.01,0.06-0.01,0.11-0.01,0.17c-0.01,0.08-0.02,0.15-0.01,0.22c0.01,0.07,0.04,0.12,0.06,0.18c0.02,0.06,0.03,0.12,0.06,0.17
	c0.02,0.04,0.06,0.07,0.09,0.11c0.05,0.06,0.09,0.13,0.16,0.18c0.02,0.01,0.04,0.02,0.06,0.03c0.09,0.06,0.18,0.12,0.29,0.14
	c0.13,0.03,0.27,0.04,0.39,0.02c0.22-0.03,0.41-0.14,0.56-0.3c0.03-0.03,0.06-0.04,0.08-0.07c0.04-0.05,0.05-0.11,0.08-0.16
	c0.03-0.06,0.08-0.12,0.09-0.19l1.39-5.17c0.26-0.76,1.06-1.21,1.8-1.03c0.4,0.12,0.73,0.39,0.93,0.76c0.2,0.37,0.24,0.79,0.13,1.15
	l-1.36,5.1c-0.14,0.53,0.17,1.07,0.7,1.21c0.09,0.02,0.17,0.03,0.26,0.03c0.29,0,0.55-0.14,0.74-0.35c0.11-0.12,0.21-0.25,0.25-0.42
	l1.08-4.02c0.21-0.85,1.06-1.36,1.86-1.18c0.83,0.25,1.31,1.12,1.05,1.98l-0.47,1.78c-0.01,0.04-0.03,0.08-0.04,0.12l-1.09,4.18l0,0
	c-0.14,0.53,0.18,1.07,0.71,1.21c0.08,0.02,0.17,0.03,0.25,0.03c0.44,0,0.84-0.29,0.96-0.74l0,0l0,0l0.05-0.2l1.08-4.1
	c0.25-0.78,1.06-1.26,1.81-1.08c0.83,0.25,1.31,1.13,1.07,1.98l-2.55,9.49c-0.25,0.93-0.75,1.76-1.46,2.41l-4.18,3.82
	c-0.14,0.13-0.24,0.29-0.29,0.48l-0.53,2l1.91,0.51l0.46-1.72l3.96-3.62c0.99-0.9,1.69-2.06,2.04-3.35l2.54-9.47
	C40.41,24.69,39.33,22.71,37.41,22.14z"/>
<path class="st0" d="M43,9.01L40,7v3h-7.44c-0.57-2.9-2.72-5.37-5.76-6.19c-4.27-1.15-8.66,1.37-9.81,5.64
	c-0.05,0.18-0.08,0.37-0.12,0.55H8V7L5,9.01l-3,2.01l3,2.01l3,2.01V12h8.74c0.08,1.3,0.47,2.58,1.16,3.72l0.88-3.29
	c-0.48-3.28,1.8-6.32,5.08-6.8c0.82-0.12,1.65-0.07,2.44,0.15c3.2,0.85,5.11,4.14,4.25,7.34c0,0,0,0,0,0.01
	c-0.21,0.8-0.59,1.54-1.11,2.18l2,0.55c0.44-0.69,0.78-1.45,1-2.24c0.15-0.54,0.23-1.08,0.26-1.62H40v3.04l3-2.01l3-2.01L43,9.01z"
	/>
</svg>
