<svg id="Layer_1" data-name="Layer 1" xmlns="http://www.w3.org/2000/svg" viewBox="0 0 48 48"><defs><style>.cls-1,.cls-2{fill:none;stroke:#fff;stroke-width:1.98px;}.cls-1{stroke-linecap:round;stroke-miterlimit:10;}.cls-2{stroke-linejoin:round;}.cls-3{fill:#fff;}</style></defs><title>ic_edu_previous_white_48dp_</title><path class="cls-1" d="M20.81,31.22,11.63,15.31a2.57,2.57,0,0,1,.85-3.53h0a2.59,2.59,0,0,1,3.48,1l6.34,11"/><path class="cls-2" d="M20,29.73l-4.54-1.11C13.86,28.28,12.6,28.55,12,30h0a2.59,2.59,0,0,0,1.52,3.3l13.12,6.12,1.5,2.6"/><path class="cls-1" d="M22.3,23.79l-2.57-4.45a2.57,2.57,0,0,1,.85-3.53h0a2.58,2.58,0,0,1,3.48,1l2.57,4.45"/><path class="cls-1" d="M26.63,21.29,24.56,17.7a2.56,2.56,0,0,1,.85-3.52h0a2.57,2.57,0,0,1,3.48,1L32,20.65"/><path class="cls-2" d="M32,20.65l-2.14-3.71a2.57,2.57,0,0,1,.85-3.53h0a2.57,2.57,0,0,1,3.48,1L39.13,23a6,6,0,0,1,.8,3.27l-.26,5.66,2.56,4.44"/><path class="cls-3" d="M10.77,8.82A6,6,0,0,1,19,11a6,6,0,0,1,.77,2.32v0l1.84-1.06a8,8,0,1,0-9.68,9.49l-1.7-2.95a6,6,0,0,1,.57-10Z"/></svg>