<svg id="Layer_1" data-name="Layer 1" xmlns="http://www.w3.org/2000/svg" viewBox="0 0 48 48"><defs><style>.cls-1,.cls-2{fill:none;stroke:#fff;stroke-width:1.98px;}.cls-1{stroke-linecap:round;stroke-miterlimit:10;}.cls-2{stroke-linejoin:round;}.cls-3{fill:#fff;}</style></defs><title>ic_edu_pause_white_48dp_</title><path class="cls-1" d="M18.94,33V14.63A2.57,2.57,0,0,1,21.44,12h0a2.58,2.58,0,0,1,2.5,2.63V27.31"/><path class="cls-2" d="M18.94,31.28l-3.38-3.23c-1.17-1.07-2.4-1.47-3.59-.52h0a2.58,2.58,0,0,0-.34,3.61L19.94,43v3"/><path class="cls-1" d="M23.94,27.31V22.17a2.57,2.57,0,0,1,2.5-2.63h0a2.58,2.58,0,0,1,2.5,2.63v5.14"/><path class="cls-1" d="M28.94,27.31V23.17a2.57,2.57,0,0,1,2.5-2.63h0a2.58,2.58,0,0,1,2.5,2.63v6.29"/><path class="cls-2" d="M33.94,29.46V25.17a2.57,2.57,0,0,1,2.5-2.63h0a2.58,2.58,0,0,1,2.5,2.63V35A6,6,0,0,1,38,38.23L34.94,43v3"/><path class="cls-3" d="M21.44,8.58A6,6,0,0,1,26.94,17v0h2.12a7.71,7.71,0,0,0,.38-2.42,8,8,0,1,0-13.5,5.8V17a6,6,0,0,1,5.5-8.39Z"/><path class="cls-3" d="M21.5,4a10.45,10.45,0,0,1,9.88,14H33.5A12.5,12.5,0,1,0,16,25.71V23.43A10.49,10.49,0,0,1,21.5,4Z"/></svg>