<svg id="Layer_1" data-name="Layer 1" xmlns="http://www.w3.org/2000/svg" viewBox="0 0 48 48"><defs><style>.cls-1,.cls-2{fill:none;stroke:#fff;stroke-width:1.98px;}.cls-1{stroke-linecap:round;stroke-miterlimit:10;}.cls-2{stroke-linejoin:round;}.cls-3{fill:#fff;}</style></defs><title>ic_edu_next_white_48dp_</title><path class="cls-1" d="M17.57,28.69l4.75-17.75a2.57,2.57,0,0,1,3.1-1.89h0a2.56,2.56,0,0,1,1.73,3.18L23.87,24.49"/><path class="cls-2" d="M18,27l-2.42-4c-.86-1.34-1.94-2-3.33-1.43h0A2.59,2.59,0,0,0,11,25l5,13.6-1,3.87"/><path class="cls-1" d="M23.87,24.49l1.33-5a2.57,2.57,0,0,1,3.1-1.89h0A2.55,2.55,0,0,1,30,20.81l-1.33,5"/><path class="cls-1" d="M28.7,25.78l1.07-4a2.57,2.57,0,0,1,3.1-1.89h0a2.55,2.55,0,0,1,1.73,3.18L33,29.15"/><path class="cls-2" d="M33,29.15,34.09,25a2.57,2.57,0,0,1,3.09-1.89h0a2.58,2.58,0,0,1,1.74,3.19l-2.55,9.49a6,6,0,0,1-1.75,2.88l-4.18,3.82-.53,2"/><path class="cls-3" d="M26.3,5.75a6,6,0,0,1,3.14,9.53v0l2,.55a8,8,0,1,0-13.55-.13l.88-3.29A6,6,0,0,1,26.3,5.75Z"/></svg>